<svg class="diagram-root" style="background: #f5f6f6" xmlns="http://www.w3.org/2000/svg" xmlns:xlink="http://www.w3.org/1999/xlink"><style>.diagram-root { font-family: "Helvetica Neue", sans-serif; font-size: 12px; } .t { overflow: visible; } .t-bg { y: 40; fill: #fff;   } .th { fill: #005aa0;   } .tht { fill: #fff; font-size: 14px;  } .tf { fill: #323c46; overflow: visible; } .tf.pk { fill: #005aa0; font-weight: bold; } .tf.fk { font-weight: bold; } .ty { fill: #adb1b5; font-weight: normal; text-anchor: end; } .r { fill: transparent; stroke: #c3c3c3; stroke-width: 1; } .l { stroke: 1; } .i { fill: #c2c7ce; stroke: #c2c7ce; } .i.ix { fill: #afb3b6; stroke: #000; } .fa { fill: transparent; overflow: visible; } .fa .bg.hover { fill: #f7f7f7; } .c { cy: 12; r: 4; stroke: #d2d2dc; fill: #d2d2dc; } .hr { fill: transparent; stroke: #323c46; stroke-opacity: 0.035; stroke-width: 13; } .dc { stroke: #fa5a3c; fill: #fa5a3c; } .x { stroke: white; stroke-width: 1; } .hl .th { fill: #1b9bff; } .hl .tht {  } .fhl .bg { fill: #e7f4ff; } .fhls .bg {  } .r.hl { stroke: #1b9bff; } .dim { opacity: 0.25; }</style><g class="drawing-wrapper" transform="translate(189, -137) scale(1,1)"><g class="rs"><path d="M 443 712 m -1, 0 a 1,1 0 1,0 2,0 a 1,1 0 1,0 -2,0 M 443 712 m -0.5, 0 a 0.5,0.5 0 1,0 1,0 a 0.5,0.5 0 1,0 -1,0  M443 712 L443 712 431 712 M 443 718 m -1, 0 a 1,1 0 1,0 2,0 a 1,1 0 1,0 -2,0 M 443 718 m -0.5, 0 a 0.5,0.5 0 1,0 1,0 a 0.5,0.5 0 1,0 -1,0  M443 718 L443 718 436 712 443 706 M 443 706 m -1, 0 a 1,1 0 1,0 2,0 a 1,1 0 1,0 -2,0 M 443 706 m -0.5, 0 a 0.5,0.5 0 1,0 1,0 a 0.5,0.5 0 1,0 -1,0  M431 712 Q 330.96 712, 230.92 815 T 30.83 918 M 18.83 918 m -1, 0 a 1,1 0 1,0 2,0 a 1,1 0 1,0 -2,0 M 18.83 918 m -0.5, 0 a 0.5,0.5 0 1,0 1,0 a 0.5,0.5 0 1,0 -1,0  M18.83 918 L18.83 918 30.83 918 M24.83 924 L24.83 924 24.83 912" id="h3724692109" class="r"></path><path d="M 632.17 737 m -1, 0 a 1,1 0 1,0 2,0 a 1,1 0 1,0 -2,0 M 632.17 737 m -0.5, 0 a 0.5,0.5 0 1,0 1,0 a 0.5,0.5 0 1,0 -1,0  M632.17 737 L632.17 737 644.17 737 M 632.17 743 m -1, 0 a 1,1 0 1,0 2,0 a 1,1 0 1,0 -2,0 M 632.17 743 m -0.5, 0 a 0.5,0.5 0 1,0 1,0 a 0.5,0.5 0 1,0 -1,0  M632.17 743 L632.17 743 639.17 737 632.17 731 M 632.17 731 m -1, 0 a 1,1 0 1,0 2,0 a 1,1 0 1,0 -2,0 M 632.17 731 m -0.5, 0 a 0.5,0.5 0 1,0 1,0 a 0.5,0.5 0 1,0 -1,0  M644.17 737 Q 685.88 737, 727.59 617 T 811 497 M 823 497 m -1, 0 a 1,1 0 1,0 2,0 a 1,1 0 1,0 -2,0 M 823 497 m -0.5, 0 a 0.5,0.5 0 1,0 1,0 a 0.5,0.5 0 1,0 -1,0  M823 497 L823 497 811 497 M817 503 L817 503 817 491" id="h2239372679" class="r"></path><path d="M 289.5 224 m -1, 0 a 1,1 0 1,0 2,0 a 1,1 0 1,0 -2,0 M 289.5 224 m -0.5, 0 a 0.5,0.5 0 1,0 1,0 a 0.5,0.5 0 1,0 -1,0  M289.5 224 L289.5 224 277.5 224 M 289.5 230 m -1, 0 a 1,1 0 1,0 2,0 a 1,1 0 1,0 -2,0 M 289.5 230 m -0.5, 0 a 0.5,0.5 0 1,0 1,0 a 0.5,0.5 0 1,0 -1,0  M289.5 230 L289.5 230 282.5 224 289.5 218 M 289.5 218 m -1, 0 a 1,1 0 1,0 2,0 a 1,1 0 1,0 -2,0 M 289.5 218 m -0.5, 0 a 0.5,0.5 0 1,0 1,0 a 0.5,0.5 0 1,0 -1,0  M277.5 224 C 227.5 224, 135.39999999999998 437, 431 437 M 443 437 m -1, 0 a 1,1 0 1,0 2,0 a 1,1 0 1,0 -2,0 M 443 437 m -0.5, 0 a 0.5,0.5 0 1,0 1,0 a 0.5,0.5 0 1,0 -1,0  M443 437 L443 437 431 437 M437 443 L437 443 437 431" id="h2116269740" class="r"></path></g><g class="hrs"></g><g class="ts"><svg width="185.83" height="100" x="-167" y="861" id="h1903237708" class="t"><rect height="40" width="185.83" class="th"></rect><text x="13" y="25" class="tht">Category</text><rect height="60" width="185.83" class="t-bg" y="40"></rect><text x="13" y="61" class="tf pk">category_id<tspan x="172.83" class="ty">VARCAHR</tspan></text><path d="M7,14A2,2 0 0,1 5,12A2,2 0 0,1 7,10A2,2 0 0,1 9,12A2,2 0 0,1 7,14M12.65,10C11.83,7.67 9.61,6 7, 6A6, 6 0 0, 0 1, 12A6, 6 0 0, 0 7, 18C9.61, 18 11.83, 16.33 12.65, 14H17V18H21V14H23V10H12.65Z" class="i pk" transform="translate(95.03898437500001, 48) scale(0.65)"></path><text x="13" y="86" class="tf">category<tspan x="172.83" class="ty">VARCHAR</tspan></text></svg><svg width="205.18" height="100" x="823" y="440" id="h2584823334" class="t"><rect height="40" width="205.18" class="th"></rect><text x="13" y="25" class="tht">Subcategory</text><rect height="60" width="205.18" class="t-bg" y="40"></rect><text x="13" y="61" class="tf pk">subcategory_id<tspan x="192.18" class="ty">VARCHAR</tspan></text><path d="M7,14A2,2 0 0,1 5,12A2,2 0 0,1 7,10A2,2 0 0,1 9,12A2,2 0 0,1 7,14M12.65,10C11.83,7.67 9.61,6 7, 6A6, 6 0 0, 0 1, 12A6, 6 0 0, 0 7, 18C9.61, 18 11.83, 16.33 12.65, 14H17V18H21V14H23V10H12.65Z" class="i pk" transform="translate(114.388984375, 48) scale(0.65)"></path><text x="13" y="86" class="tf">subcategory<tspan x="192.18" class="ty">VARCHAR</tspan></text></svg><svg width="189.17" height="400" x="443" y="355" id="h2386492057" class="t"><rect height="40" width="189.17" class="th"></rect><text x="13" y="25" class="tht">Resources</text><rect height="360" width="189.17" class="t-bg" y="40"></rect><text x="13" y="61" class="tf">cf_id<tspan x="176.17" class="ty">INTEGER</tspan></text><text x="13" y="86" class="tf pk">contact_id<tspan x="176.17" class="ty">INTEGER</tspan></text><path d="M7,14A2,2 0 0,1 5,12A2,2 0 0,1 7,10A2,2 0 0,1 9,12A2,2 0 0,1 7,14M12.65,10C11.83,7.67 9.61,6 7, 6A6, 6 0 0, 0 1, 12A6, 6 0 0, 0 7, 18C9.61, 18 11.83, 16.33 12.65, 14H17V18H21V14H23V10H12.65Z" class="i pk" transform="translate(102.83210937499999, 73) scale(0.65)"></path><text x="13" y="111" class="tf">company_name<tspan x="176.17" class="ty">VARCHAR</tspan></text><text x="13" y="136" class="tf">description<tspan x="176.17" class="ty">VARCHAR</tspan></text><text x="13" y="161" class="tf">goal<tspan x="176.17" class="ty">FLOAT</tspan></text><text x="13" y="186" class="tf">pledged<tspan x="176.17" class="ty">FLOAT</tspan></text><text x="13" y="211" class="tf">outcome<tspan x="176.17" class="ty">VARCHAR</tspan></text><text x="13" y="236" class="tf">backers_count<tspan x="176.17" class="ty">INTEGER</tspan></text><text x="13" y="261" class="tf">country<tspan x="176.17" class="ty">VARCHAR</tspan></text><text x="13" y="286" class="tf">currency<tspan x="176.17" class="ty">VARCHAR</tspan></text><text x="13" y="311" class="tf">launched_date<tspan x="176.17" class="ty">DATE</tspan></text><text x="13" y="336" class="tf">end_date<tspan x="176.17" class="ty">DATE</tspan></text><text x="13" y="361" class="tf fk">category_id<tspan x="176.17" class="ty">VARCHAR</tspan></text><text x="13" y="386" class="tf fk">subcategory_id<tspan x="176.17" class="ty">VARCHAR</tspan></text></svg><svg width="159.81" height="150" x="289.5" y="167" id="h1934035236" class="t"><rect height="40" width="159.81" class="th"></rect><text x="13" y="25" class="tht">Contacts</text><rect height="110" width="159.81" class="t-bg" y="40"></rect><text x="13" y="61" class="tf fk">contact_id<tspan x="146.81" class="ty">INTEGER</tspan></text><text x="13" y="86" class="tf">first_name<tspan x="146.81" class="ty">VARCHAR</tspan></text><text x="13" y="111" class="tf">last_name<tspan x="146.81" class="ty">VARCHAR</tspan></text><text x="13" y="136" class="tf">email<tspan x="146.81" class="ty">VARCHAR</tspan></text></svg></g></g><text class="qdbd-link" x="10" y="20">www.quickdatabasediagrams.com</text></svg>